<svg xmlns="http://www.w3.org/2000/svg" width="300" height="500" viewBox="0 0 300 500"><rect width="300" height="500" rx="12" fill="#252b27"/><g fill="none" stroke="#c4a064" stroke-width="2"><rect x="13" y="13" width="274" height="474" rx="8"/><rect x="22" y="22" width="256" height="456" rx="6"/><circle cx="150" cy="195" r="51"/><circle cx="150" cy="195" r="39"/><path d="M150 131v128m-64-64h128m-95-45 62 90m0-90-62 90m31-79 9 29 29 9-29 9-9 29-9-29-29-9 29-9 9-29ZM100 324q25-16 50 0v60q-25-16-50 0zm50 0q25-16 50 0v60q-25-16-50 0M150 66l6 19-6 19-6-19zm0 341 6 19-6 19-6-19z"/></g></svg>

